<svg xmlns="http://www.w3.org/2000/svg" width="128" height="32"><g data-name="Gruppe 480" fill="#cf0"><path data-name="Pfad 1432" d="M128 15.14A15.67 15.67 0 0 0 113.14 0v7.86a7.83 7.83 0 0 1 7.02 7.28Z"/><path data-name="Pfad 1433" d="M111.7 23.47a7.84 7.84 0 0 1-7.08-6.64h-7.87a15.67 15.67 0 0 0 14.95 14.5v-7.86Z"/><path data-name="Pfad 1434" d="M120.11 16.7a7.84 7.84 0 0 1-6.84 6.75v7.86a15.67 15.67 0 0 0 14.7-14.6Z"/></g><path data-name="Pfad 1435" d="M0 31.58V5.83l3.94-2.06v27.81Z" fill="#fff"/><path data-name="Pfad 1436" d="M24.18 22.96H10.92c.43 3.85 2.6 5.5 5.05 5.5a7.03 7.03 0 0 0 4.35-1.6l2.33 2.51A9.34 9.34 0 0 1 15.74 32c-4.7 0-8.67-3.77-8.67-10.41 0-6.8 3.59-10.45 8.78-10.45 5.7 0 8.45 4.61 8.45 10.03 0 .72-.08 1.37-.12 1.79Zm-8.6-8.28c-2.63 0-4.24 1.83-4.58 5.04h9.32c-.19-2.75-1.49-5.04-4.73-5.04Z" fill="#fff"/><path data-name="Pfad 1437" d="M50.58 31.58V20.25c0-4.04-1.26-5.5-3.86-5.5-2.64 0-3.86 1.88-3.86 5.12v11.71h-3.93V20.25c0-4.04-1.26-5.5-3.86-5.5-2.64 0-3.86 1.88-3.86 5.12v11.71h-3.94V11.55h3.94v1.9a5.63 5.63 0 0 1 4.77-2.32c2.72 0 4.44 1.03 5.5 2.94a7.01 7.01 0 0 1 6.16-2.94c4.66 0 6.87 3.05 6.87 8.97v11.48Z" fill="#fff"/><path data-name="Pfad 1438" d="M66.13 32c-5.05 0-8.83-4.16-8.83-10.41 0-6.57 3.9-10.46 8.94-10.46 5.12 0 8.94 4.09 8.94 10.34 0 6.64-3.9 10.53-9.06 10.53Zm-.04-17.13c-2.98 0-4.82 2.63-4.82 6.6 0 4.39 2.03 6.79 5 6.79s4.94-3.01 4.94-6.68c0-4.07-1.95-6.7-5.12-6.7Z" fill="#fff"/><path data-name="Pfad 1439" d="M90.3 31.58V20.25c0-4.04-1.52-5.5-4.12-5.5-2.64 0-4.13 1.88-4.13 5.12v11.71h-3.93V11.55h3.93v1.9a6.15 6.15 0 0 1 5.05-2.32c4.66 0 7.14 3.05 7.14 8.97v11.48Z" fill="#fff"/><path data-name="Pfad 1440" d="M102.7 10.52v3.15h-1.84v-3.19H97.2V9.07l3.68-8.84h1.82v8.5h.75v1.8Zm-2.63-4.01-.21.58c-.25.67-.46 1.17-.7 1.67l1.08-.02h.64V6.36c0-.83.04-1.87.07-2.56-.17.71-.55 1.83-.88 2.71Z" fill="#fff"/><path data-name="Pfad 1441" d="M104.51 13.68c.14-3.98.71-5.33 2.44-7.52a4.38 4.38 0 0 0 1.1-2.82c0-.98-.13-1.38-.61-1.38-.52 0-.7.44-.85 1.9l-2.04-.29c.22-2.11.89-3.55 2.93-3.55 1.84 0 2.63 1.4 2.63 3.26a6.22 6.22 0 0 1-1.52 3.94 7.02 7.02 0 0 0-1.86 4.51h3.4v1.94Z" fill="#fff"/></svg>